<svg width="19" height="18" viewBox="0 0 19 18" fill="none" xmlns="http://www.w3.org/2000/svg">
<path d="M8.63656 0.857145C9.38207 0.857145 10.1056 0.951234 10.7957 1.12751L10.3639 2.78739C9.81182 2.64638 9.233 2.57144 8.63656 2.57144C4.8207 2.57144 1.72733 5.6415 1.72731 9.42859C1.72731 10.5724 2.00843 11.6721 2.53867 12.6562L2.84062 13.2162L2.27469 15.7425L4.82011 15.1808L5.38436 15.4804C6.37598 16.0067 7.4841 16.2857 8.63656 16.2857C12.4525 16.2857 15.5458 13.2157 15.5458 9.42859C15.5458 9.15182 15.529 8.87891 15.4969 8.61079L17.2124 8.40816C17.2524 8.74279 17.2731 9.08333 17.2731 9.42859C17.2731 14.1624 13.4064 18 8.63656 18C7.16619 18 5.78153 17.6354 4.56962 16.9922L0 18L1.01547 13.4649C0.367408 12.262 0 10.8879 0 9.42859C1.72731e-05 4.69472 3.86673 0.857145 8.63656 0.857145ZM15.1393 0.273724C15.2917 -0.0912357 15.7999 -0.0912468 15.9523 0.273724L16.1707 0.79772C16.5438 1.69155 17.2399 2.4053 18.1148 2.79158L18.7339 3.06529C19.0887 3.22188 19.0887 3.73405 18.7339 3.89063L18.0786 4.18025C17.2256 4.55677 16.5419 5.24525 16.1624 6.10965L15.949 6.59431C15.7931 6.94928 15.2985 6.94928 15.1427 6.59431L14.9292 6.10965C14.5497 5.24524 13.8661 4.55677 13.0131 4.18025L12.3568 3.89063C12.0026 3.7339 12.0026 3.22199 12.3568 3.06529L12.9768 2.79158C13.8517 2.4053 14.5479 1.69155 14.9209 0.79772L15.1393 0.273724Z" fill="black" fill-opacity="0.8"/>
</svg>
