<svg width="16" height="16" viewBox="0 0 16 16" fill="none" xmlns="http://www.w3.org/2000/svg">
<path d="M2.77006 1.9461C4.17245 0.733504 6.00056 0 8 0C12.4182 0 16 3.58172 16 8C16 9.70888 15.4642 11.2926 14.5514 12.5925L12 8H14.4C14.4 4.46538 11.5346 1.6 8 1.6C6.27986 1.6 4.71822 2.27862 3.56818 3.38274L2.77006 1.9461ZM13.2299 14.0539C11.8275 15.2665 9.99944 16 8 16C3.58172 16 0 12.4182 0 8C0 6.29109 0.535832 4.70733 1.44864 3.40755L4 8H1.6C1.6 11.5346 4.46538 14.4 8 14.4C9.72016 14.4 11.2818 13.7214 12.4318 12.6173L13.2299 14.0539Z" fill="black" fill-opacity="0.8"/>
</svg>
