<svg xmlns="http://www.w3.org/2000/svg" width="250" height="250" viewBox="0 0 250 250">
  <!-- SVG created with Arrow, by QuiverAI (https://quiver.ai) -->
  <path
    d="m117.1 5.24c-49.16 0-93.37 40.6-93.37 91.58 0 20.8 6.33 37.3 18.46 54.15 9.64 13.8 16.04 24.2 16.04 42.88 0 9.76-5.3 32.06-8.55 45.14-0.75 3.08 1.08 4.88 3.46 4.88 2.15 0 4.07-1.01 4.79-3.96 3.32-12.82 7.95-32.59 7.95-46.06 0-19.79-7.24-32.74-16.9-46.76-10.35-15.22-16.25-30.07-16.25-50.27 0-45.66 39.44-83.4 84.37-83.4 46.76 0 81.37 35.65 81.37 78.75 0 3.69-0.46 6.54-0.46 10.63 0 4.34 1.18 7.68 3.38 11.58l12.82 22.33c1.46 2.72 1.69 3.75 1.69 4.98 0 2.55-2.19 3.87-8.75 5.56-5.21 1.36-8.68 2.39-9.31 9.04l-2.83 33.46c-0.88 9-6.08 13.18-15.5 13.18h-12.82c-13.48 0-22.14 10.36-22.14 23.08v13.63c0 3.27 2.28 4.48 4.38 4.48 2.37 0 4.01-1.65 4.01-4.48v-13.63c0-9 6.56-14.2 14.31-14.2h7.9c7.75 0 14.59-1.15 19.29-4.74 5.66-4.26 8.49-9.83 9.11-17.88l2.96-31.24c0.15-1.47 0.79-2.03 1.95-2.33 9.87-2.37 16.17-5.98 16.17-14.7 0-3.36-1.5-6.54-3.7-10.45l-11.79-20.66c-1.79-3.27-2.48-5.09-2.48-8.84 0-3.27 0.45-5.82 0.45-9.18 0-45.72-38.38-86.55-90.01-86.55z"
    fill="#000"
    stroke="#000"
    stroke-width="6.4"
    stroke-linejoin="round"
    stroke-linecap="round"
  />
  <g transform="translate(125 125) scale(0.9) translate(-125 -125)">
    <path
      d="m116.8 27.32c-42.67 0-70.71 34.92-70.71 66.75 0 9.85 4.21 17.14 11.44 20.68-1.15 13.22 9.2 25.26 22.69 25.26 9.87 0 15.82-5.72 20.63-11.4 6.15-6.55 12.04-8.76 20.7-8.76 12.44 0 23.17-3.54 28.83-15.93h7.22c15.2 0 25.92-11.05 25.92-24.27 0-21.87-25.4-52.33-66.72-52.33zm41.32 68.11h-6.3c0-14.51-14.13-26.32-29.33-26.32h-2.47c-3.39 0-4.2 1.8-4.2 4 0 2.63 1.55 3.9 4.2 3.9h3.32c11.33 0 20.78 9.15 20.78 18.42 0 10.02-8 16.82-19.34 16.82h-5.89c-11.63 0-20 5.48-26.15 13.38-4.85 5.2-8.02 6.67-12.52 6.67-8.66 0-15.17-7.38-15.17-14.92v-1.36c7.07-0.94 14.05-3.49 20.2-5.95 2.42-1.03 2.95-3.01 2.32-4.86-0.84-2.12-2.85-2.73-5.13-1.95-6.7 2.55-12.22 4.49-18.52 4.49-7.17 0-9.7-7.67-9.7-13.84 0-26.82 23.27-58.3 62.58-58.3 35.65 0 58.12 26.5 58.12 44.04 0 9-6.56 15.78-16.8 15.78z"
      fill="#000"
      stroke="#000"
      stroke-width="6.4"
      stroke-linejoin="round"
      stroke-linecap="round"
    />
    <path
      d="m112.4 48.31h-1.2c-16.89 0-27.61 12.04-27.61 25.26 0 14.06 12.54 25.11 31.04 25.11h1.55c3.02 0 3.95-1.98 3.95-3.78 0-2.37-1.41-4.03-3.95-4.03h-1.55c-13.48 0-23.3-7.54-23.3-17.55 0-9.66 8-16.91 19.87-16.91h0.93c3.02-0.15 4.37-2.05 4.37-4.16 0-2.34-1.65-3.94-4.1-3.94z"
      fill="#000"
      stroke="#000"
      stroke-width="6.4"
      stroke-linejoin="round"
      stroke-linecap="round"
    />
  </g>
</svg>
